<mxfile host="app.diagrams.net" agent="Mozilla/5.0 (Windows NT 10.0; Win64; x64) AppleWebKit/537.36 (KHTML, like Gecko) Chrome/134.0.0.0 Safari/537.36" version="26.1.1">
  <diagram name="Page-1" id="-NMaRjv8BOp-L0QG4-nK">
    <mxGraphModel dx="1947" dy="434" grid="1" gridSize="10" guides="1" tooltips="1" connect="1" arrows="1" fold="1" page="1" pageScale="1" pageWidth="827" pageHeight="1169" math="0" shadow="0">
      <root>
        <mxCell id="0" />
        <mxCell id="1" parent="0" />
        <mxCell id="ZlwNezZ9-106J7RFvOST-1" value="station" style="whiteSpace=wrap;html=1;align=center;" vertex="1" parent="1">
          <mxGeometry x="50" y="90" width="100" height="40" as="geometry" />
        </mxCell>
        <mxCell id="ZlwNezZ9-106J7RFvOST-2" style="edgeStyle=orthogonalEdgeStyle;rounded=0;orthogonalLoop=1;jettySize=auto;html=1;exitX=0.5;exitY=1;exitDx=0;exitDy=0;" edge="1" parent="1" source="ZlwNezZ9-106J7RFvOST-1" target="ZlwNezZ9-106J7RFvOST-1">
          <mxGeometry relative="1" as="geometry" />
        </mxCell>
        <mxCell id="ZlwNezZ9-106J7RFvOST-3" value="Id" style="ellipse;whiteSpace=wrap;html=1;align=center;fontStyle=4;" vertex="1" parent="1">
          <mxGeometry x="-10" y="20" width="100" height="40" as="geometry" />
        </mxCell>
        <mxCell id="ZlwNezZ9-106J7RFvOST-4" value="" style="endArrow=none;html=1;rounded=0;exitX=0.58;exitY=1.025;exitDx=0;exitDy=0;exitPerimeter=0;entryX=0.1;entryY=-0.1;entryDx=0;entryDy=0;entryPerimeter=0;" edge="1" parent="1" source="ZlwNezZ9-106J7RFvOST-3" target="ZlwNezZ9-106J7RFvOST-1">
          <mxGeometry relative="1" as="geometry">
            <mxPoint x="20" y="60" as="sourcePoint" />
            <mxPoint x="180" y="60" as="targetPoint" />
          </mxGeometry>
        </mxCell>
        <mxCell id="ZlwNezZ9-106J7RFvOST-5" value="Name" style="ellipse;whiteSpace=wrap;html=1;align=center;" vertex="1" parent="1">
          <mxGeometry x="120" y="20" width="100" height="40" as="geometry" />
        </mxCell>
        <mxCell id="ZlwNezZ9-106J7RFvOST-7" value="" style="endArrow=none;html=1;rounded=0;entryX=0.75;entryY=0;entryDx=0;entryDy=0;" edge="1" parent="1" target="ZlwNezZ9-106J7RFvOST-1">
          <mxGeometry relative="1" as="geometry">
            <mxPoint x="180" y="60" as="sourcePoint" />
            <mxPoint x="340" y="60" as="targetPoint" />
          </mxGeometry>
        </mxCell>
        <mxCell id="ZlwNezZ9-106J7RFvOST-8" value="has" style="shape=rhombus;perimeter=rhombusPerimeter;whiteSpace=wrap;html=1;align=center;" vertex="1" parent="1">
          <mxGeometry x="200" y="80" width="120" height="60" as="geometry" />
        </mxCell>
        <mxCell id="ZlwNezZ9-106J7RFvOST-9" value="trip" style="whiteSpace=wrap;html=1;align=center;" vertex="1" parent="1">
          <mxGeometry x="414" y="90" width="100" height="40" as="geometry" />
        </mxCell>
        <mxCell id="ZlwNezZ9-106J7RFvOST-10" value="" style="shape=link;html=1;rounded=0;" edge="1" parent="1">
          <mxGeometry relative="1" as="geometry">
            <mxPoint x="320" y="109.5" as="sourcePoint" />
            <mxPoint x="410" y="110" as="targetPoint" />
          </mxGeometry>
        </mxCell>
        <mxCell id="ZlwNezZ9-106J7RFvOST-11" value="N" style="resizable=0;html=1;whiteSpace=wrap;align=right;verticalAlign=bottom;" connectable="0" vertex="1" parent="ZlwNezZ9-106J7RFvOST-10">
          <mxGeometry x="1" relative="1" as="geometry" />
        </mxCell>
        <mxCell id="ZlwNezZ9-106J7RFvOST-16" value="" style="endArrow=none;html=1;rounded=0;" edge="1" parent="1">
          <mxGeometry relative="1" as="geometry">
            <mxPoint x="150" y="109.5" as="sourcePoint" />
            <mxPoint x="200" y="110" as="targetPoint" />
          </mxGeometry>
        </mxCell>
        <mxCell id="ZlwNezZ9-106J7RFvOST-17" value="N" style="resizable=0;html=1;whiteSpace=wrap;align=right;verticalAlign=bottom;" connectable="0" vertex="1" parent="ZlwNezZ9-106J7RFvOST-16">
          <mxGeometry x="1" relative="1" as="geometry" />
        </mxCell>
        <mxCell id="ZlwNezZ9-106J7RFvOST-18" value="origin_id" style="ellipse;whiteSpace=wrap;html=1;align=center;" vertex="1" parent="1">
          <mxGeometry x="470" y="20" width="100" height="40" as="geometry" />
        </mxCell>
        <mxCell id="ZlwNezZ9-106J7RFvOST-19" value="" style="endArrow=none;html=1;rounded=0;exitX=0.86;exitY=0;exitDx=0;exitDy=0;exitPerimeter=0;" edge="1" parent="1" source="ZlwNezZ9-106J7RFvOST-9">
          <mxGeometry relative="1" as="geometry">
            <mxPoint x="384" y="60" as="sourcePoint" />
            <mxPoint x="544" y="60" as="targetPoint" />
          </mxGeometry>
        </mxCell>
        <mxCell id="ZlwNezZ9-106J7RFvOST-20" value="Id" style="ellipse;whiteSpace=wrap;html=1;align=center;fontStyle=4;" vertex="1" parent="1">
          <mxGeometry x="350" y="20" width="100" height="40" as="geometry" />
        </mxCell>
        <mxCell id="ZlwNezZ9-106J7RFvOST-21" value="" style="endArrow=none;html=1;rounded=0;entryX=0.25;entryY=0;entryDx=0;entryDy=0;exitX=0;exitY=1;exitDx=0;exitDy=0;" edge="1" parent="1" source="ZlwNezZ9-106J7RFvOST-20" target="ZlwNezZ9-106J7RFvOST-9">
          <mxGeometry relative="1" as="geometry">
            <mxPoint x="354" y="60" as="sourcePoint" />
            <mxPoint x="514" y="60" as="targetPoint" />
          </mxGeometry>
        </mxCell>
        <mxCell id="ZlwNezZ9-106J7RFvOST-22" value="destination_id" style="ellipse;whiteSpace=wrap;html=1;align=center;" vertex="1" parent="1">
          <mxGeometry x="590" y="20" width="100" height="40" as="geometry" />
        </mxCell>
        <mxCell id="ZlwNezZ9-106J7RFvOST-23" value="" style="endArrow=none;html=1;rounded=0;entryX=0.5;entryY=1;entryDx=0;entryDy=0;" edge="1" parent="1" target="ZlwNezZ9-106J7RFvOST-22">
          <mxGeometry relative="1" as="geometry">
            <mxPoint x="510" y="89" as="sourcePoint" />
            <mxPoint x="670" y="89" as="targetPoint" />
          </mxGeometry>
        </mxCell>
        <mxCell id="ZlwNezZ9-106J7RFvOST-24" value="bus" style="whiteSpace=wrap;html=1;align=center;" vertex="1" parent="1">
          <mxGeometry x="414" y="270" width="100" height="40" as="geometry" />
        </mxCell>
        <mxCell id="ZlwNezZ9-106J7RFvOST-25" value="trip_id" style="ellipse;whiteSpace=wrap;html=1;align=center;" vertex="1" parent="1">
          <mxGeometry x="750" y="160" width="100" height="40" as="geometry" />
        </mxCell>
        <mxCell id="ZlwNezZ9-106J7RFvOST-26" value="seat_capacity&lt;div&gt;&lt;br&gt;&lt;/div&gt;" style="ellipse;whiteSpace=wrap;html=1;align=center;" vertex="1" parent="1">
          <mxGeometry x="640" y="160" width="100" height="40" as="geometry" />
        </mxCell>
        <mxCell id="ZlwNezZ9-106J7RFvOST-27" value="Id" style="ellipse;whiteSpace=wrap;html=1;align=center;fontStyle=4;" vertex="1" parent="1">
          <mxGeometry x="520" y="140" width="100" height="40" as="geometry" />
        </mxCell>
        <mxCell id="ZlwNezZ9-106J7RFvOST-28" value="" style="endArrow=none;html=1;rounded=0;entryX=1;entryY=1;entryDx=0;entryDy=0;exitX=0.75;exitY=0;exitDx=0;exitDy=0;" edge="1" parent="1" source="ZlwNezZ9-106J7RFvOST-24" target="ZlwNezZ9-106J7RFvOST-27">
          <mxGeometry relative="1" as="geometry">
            <mxPoint x="530" y="220" as="sourcePoint" />
            <mxPoint x="620" y="199" as="targetPoint" />
          </mxGeometry>
        </mxCell>
        <mxCell id="ZlwNezZ9-106J7RFvOST-29" value="" style="endArrow=none;html=1;rounded=0;entryX=0.06;entryY=0.8;entryDx=0;entryDy=0;entryPerimeter=0;exitX=1;exitY=0;exitDx=0;exitDy=0;" edge="1" parent="1" source="ZlwNezZ9-106J7RFvOST-24" target="ZlwNezZ9-106J7RFvOST-26">
          <mxGeometry relative="1" as="geometry">
            <mxPoint x="540" y="230" as="sourcePoint" />
            <mxPoint x="700" y="230" as="targetPoint" />
          </mxGeometry>
        </mxCell>
        <mxCell id="ZlwNezZ9-106J7RFvOST-30" value="" style="endArrow=none;html=1;rounded=0;entryX=0;entryY=1;entryDx=0;entryDy=0;" edge="1" parent="1" target="ZlwNezZ9-106J7RFvOST-25">
          <mxGeometry relative="1" as="geometry">
            <mxPoint x="520" y="260" as="sourcePoint" />
            <mxPoint x="710" y="240" as="targetPoint" />
            <Array as="points">
              <mxPoint x="520" y="270" />
            </Array>
          </mxGeometry>
        </mxCell>
        <mxCell id="ZlwNezZ9-106J7RFvOST-31" value="has" style="shape=rhombus;perimeter=rhombusPerimeter;whiteSpace=wrap;html=1;align=center;" vertex="1" parent="1">
          <mxGeometry x="404" y="160" width="120" height="60" as="geometry" />
        </mxCell>
        <mxCell id="ZlwNezZ9-106J7RFvOST-32" value="" style="endArrow=none;html=1;rounded=0;exitX=0.25;exitY=1;exitDx=0;exitDy=0;entryX=0.5;entryY=0;entryDx=0;entryDy=0;" edge="1" parent="1" source="ZlwNezZ9-106J7RFvOST-9" target="ZlwNezZ9-106J7RFvOST-31">
          <mxGeometry relative="1" as="geometry">
            <mxPoint x="370" y="160" as="sourcePoint" />
            <mxPoint x="380" y="230" as="targetPoint" />
          </mxGeometry>
        </mxCell>
        <mxCell id="ZlwNezZ9-106J7RFvOST-33" value="1" style="resizable=0;html=1;whiteSpace=wrap;align=right;verticalAlign=bottom;" connectable="0" vertex="1" parent="ZlwNezZ9-106J7RFvOST-32">
          <mxGeometry x="1" relative="1" as="geometry" />
        </mxCell>
        <mxCell id="ZlwNezZ9-106J7RFvOST-36" value="" style="shape=link;html=1;rounded=0;" edge="1" parent="1">
          <mxGeometry relative="1" as="geometry">
            <mxPoint x="464" y="210" as="sourcePoint" />
            <mxPoint x="463.5" y="270" as="targetPoint" />
            <Array as="points">
              <mxPoint x="463.5" y="250" />
            </Array>
          </mxGeometry>
        </mxCell>
        <mxCell id="ZlwNezZ9-106J7RFvOST-37" value="N" style="resizable=0;html=1;whiteSpace=wrap;align=right;verticalAlign=bottom;" connectable="0" vertex="1" parent="ZlwNezZ9-106J7RFvOST-36">
          <mxGeometry x="1" relative="1" as="geometry" />
        </mxCell>
        <mxCell id="ZlwNezZ9-106J7RFvOST-39" value="booking" style="whiteSpace=wrap;html=1;align=center;" vertex="1" parent="1">
          <mxGeometry x="130" y="240" width="100" height="40" as="geometry" />
        </mxCell>
        <mxCell id="ZlwNezZ9-106J7RFvOST-41" value="has" style="shape=rhombus;perimeter=rhombusPerimeter;whiteSpace=wrap;html=1;align=center;" vertex="1" parent="1">
          <mxGeometry x="404" y="330" width="120" height="60" as="geometry" />
        </mxCell>
        <mxCell id="ZlwNezZ9-106J7RFvOST-44" value="" style="shape=link;html=1;rounded=0;" edge="1" parent="1">
          <mxGeometry relative="1" as="geometry">
            <mxPoint x="463.5" y="379.5" as="sourcePoint" />
            <mxPoint x="463.5" y="420" as="targetPoint" />
          </mxGeometry>
        </mxCell>
        <mxCell id="ZlwNezZ9-106J7RFvOST-45" value="N" style="resizable=0;html=1;whiteSpace=wrap;align=right;verticalAlign=bottom;" connectable="0" vertex="1" parent="ZlwNezZ9-106J7RFvOST-44">
          <mxGeometry x="1" relative="1" as="geometry">
            <mxPoint as="offset" />
          </mxGeometry>
        </mxCell>
        <mxCell id="ZlwNezZ9-106J7RFvOST-49" value="" style="endArrow=none;html=1;rounded=0;" edge="1" parent="1">
          <mxGeometry relative="1" as="geometry">
            <mxPoint x="460" y="309.5" as="sourcePoint" />
            <mxPoint x="460" y="330" as="targetPoint" />
            <Array as="points" />
          </mxGeometry>
        </mxCell>
        <mxCell id="ZlwNezZ9-106J7RFvOST-50" value="1" style="resizable=0;html=1;whiteSpace=wrap;align=right;verticalAlign=bottom;" connectable="0" vertex="1" parent="ZlwNezZ9-106J7RFvOST-49">
          <mxGeometry x="1" relative="1" as="geometry">
            <mxPoint as="offset" />
          </mxGeometry>
        </mxCell>
        <mxCell id="ZlwNezZ9-106J7RFvOST-53" value="Id" style="ellipse;whiteSpace=wrap;html=1;align=center;fontStyle=4;" vertex="1" parent="1">
          <mxGeometry x="560" y="270" width="100" height="40" as="geometry" />
        </mxCell>
        <mxCell id="ZlwNezZ9-106J7RFvOST-55" value="bus_id" style="ellipse;whiteSpace=wrap;html=1;align=center;" vertex="1" parent="1">
          <mxGeometry x="670" y="270" width="100" height="40" as="geometry" />
        </mxCell>
        <mxCell id="ZlwNezZ9-106J7RFvOST-56" value="seat_number" style="ellipse;whiteSpace=wrap;html=1;align=center;" vertex="1" parent="1">
          <mxGeometry x="780" y="270" width="100" height="40" as="geometry" />
        </mxCell>
        <mxCell id="ZlwNezZ9-106J7RFvOST-57" value="Is_booked" style="ellipse;whiteSpace=wrap;html=1;align=center;" vertex="1" parent="1">
          <mxGeometry x="890" y="270" width="100" height="40" as="geometry" />
        </mxCell>
        <mxCell id="ZlwNezZ9-106J7RFvOST-63" value="seat&lt;div&gt;&lt;br&gt;&lt;/div&gt;" style="rounded=1;arcSize=10;whiteSpace=wrap;html=1;align=center;" vertex="1" parent="1">
          <mxGeometry x="420" y="420" width="100" height="30" as="geometry" />
        </mxCell>
        <mxCell id="ZlwNezZ9-106J7RFvOST-65" value="" style="endArrow=none;html=1;rounded=0;exitX=0.26;exitY=0.975;exitDx=0;exitDy=0;exitPerimeter=0;" edge="1" parent="1" source="ZlwNezZ9-106J7RFvOST-53" target="ZlwNezZ9-106J7RFvOST-63">
          <mxGeometry relative="1" as="geometry">
            <mxPoint x="690" y="280" as="sourcePoint" />
            <mxPoint x="850" y="280" as="targetPoint" />
          </mxGeometry>
        </mxCell>
        <mxCell id="ZlwNezZ9-106J7RFvOST-66" style="edgeStyle=orthogonalEdgeStyle;rounded=0;orthogonalLoop=1;jettySize=auto;html=1;exitX=0.5;exitY=1;exitDx=0;exitDy=0;" edge="1" parent="1" source="ZlwNezZ9-106J7RFvOST-41" target="ZlwNezZ9-106J7RFvOST-41">
          <mxGeometry relative="1" as="geometry" />
        </mxCell>
        <mxCell id="ZlwNezZ9-106J7RFvOST-67" value="" style="endArrow=none;html=1;rounded=0;entryX=0;entryY=1;entryDx=0;entryDy=0;" edge="1" parent="1" target="ZlwNezZ9-106J7RFvOST-56">
          <mxGeometry relative="1" as="geometry">
            <mxPoint x="520" y="430" as="sourcePoint" />
            <mxPoint x="680" y="430" as="targetPoint" />
          </mxGeometry>
        </mxCell>
        <mxCell id="ZlwNezZ9-106J7RFvOST-68" value="" style="endArrow=none;html=1;rounded=0;entryX=0.09;entryY=0.775;entryDx=0;entryDy=0;entryPerimeter=0;exitX=1;exitY=0;exitDx=0;exitDy=0;" edge="1" parent="1" source="ZlwNezZ9-106J7RFvOST-63" target="ZlwNezZ9-106J7RFvOST-55">
          <mxGeometry relative="1" as="geometry">
            <mxPoint x="650" y="410" as="sourcePoint" />
            <mxPoint x="810" y="410" as="targetPoint" />
          </mxGeometry>
        </mxCell>
        <mxCell id="ZlwNezZ9-106J7RFvOST-69" value="" style="endArrow=none;html=1;rounded=0;entryX=0;entryY=1;entryDx=0;entryDy=0;" edge="1" parent="1" target="ZlwNezZ9-106J7RFvOST-57">
          <mxGeometry relative="1" as="geometry">
            <mxPoint x="520" y="434.5" as="sourcePoint" />
            <mxPoint x="680" y="434.5" as="targetPoint" />
          </mxGeometry>
        </mxCell>
        <mxCell id="ZlwNezZ9-106J7RFvOST-71" value="Id" style="ellipse;whiteSpace=wrap;html=1;align=center;fontStyle=4;" vertex="1" parent="1">
          <mxGeometry y="290" width="100" height="40" as="geometry" />
        </mxCell>
        <mxCell id="ZlwNezZ9-106J7RFvOST-72" value="seat_id" style="ellipse;whiteSpace=wrap;html=1;align=center;" vertex="1" parent="1">
          <mxGeometry y="190" width="100" height="40" as="geometry" />
        </mxCell>
        <mxCell id="ZlwNezZ9-106J7RFvOST-73" style="edgeStyle=orthogonalEdgeStyle;rounded=0;orthogonalLoop=1;jettySize=auto;html=1;exitX=0.5;exitY=1;exitDx=0;exitDy=0;" edge="1" parent="1" source="ZlwNezZ9-106J7RFvOST-71" target="ZlwNezZ9-106J7RFvOST-71">
          <mxGeometry relative="1" as="geometry" />
        </mxCell>
        <mxCell id="ZlwNezZ9-106J7RFvOST-74" value="start_station_id" style="ellipse;whiteSpace=wrap;html=1;align=center;" vertex="1" parent="1">
          <mxGeometry y="140" width="100" height="40" as="geometry" />
        </mxCell>
        <mxCell id="ZlwNezZ9-106J7RFvOST-75" value="user_id" style="ellipse;whiteSpace=wrap;html=1;align=center;" vertex="1" parent="1">
          <mxGeometry y="240" width="100" height="40" as="geometry" />
        </mxCell>
        <mxCell id="ZlwNezZ9-106J7RFvOST-77" value="" style="endArrow=none;html=1;rounded=0;exitX=0.43;exitY=1.075;exitDx=0;exitDy=0;exitPerimeter=0;" edge="1" parent="1" source="ZlwNezZ9-106J7RFvOST-39" target="ZlwNezZ9-106J7RFvOST-84">
          <mxGeometry relative="1" as="geometry">
            <mxPoint x="160" y="560" as="sourcePoint" />
            <mxPoint x="320" y="560" as="targetPoint" />
          </mxGeometry>
        </mxCell>
        <mxCell id="ZlwNezZ9-106J7RFvOST-79" value="" style="endArrow=none;html=1;rounded=0;entryX=0.25;entryY=1;entryDx=0;entryDy=0;" edge="1" parent="1" target="ZlwNezZ9-106J7RFvOST-39">
          <mxGeometry relative="1" as="geometry">
            <mxPoint x="90" y="320" as="sourcePoint" />
            <mxPoint x="250" y="320" as="targetPoint" />
          </mxGeometry>
        </mxCell>
        <mxCell id="ZlwNezZ9-106J7RFvOST-80" value="" style="endArrow=none;html=1;rounded=0;entryX=0;entryY=0.5;entryDx=0;entryDy=0;" edge="1" parent="1" target="ZlwNezZ9-106J7RFvOST-39">
          <mxGeometry relative="1" as="geometry">
            <mxPoint x="100" y="259.5" as="sourcePoint" />
            <mxPoint x="260" y="259.5" as="targetPoint" />
          </mxGeometry>
        </mxCell>
        <mxCell id="ZlwNezZ9-106J7RFvOST-81" value="" style="endArrow=none;html=1;rounded=0;entryX=0.11;entryY=-0.025;entryDx=0;entryDy=0;entryPerimeter=0;" edge="1" parent="1" target="ZlwNezZ9-106J7RFvOST-39">
          <mxGeometry relative="1" as="geometry">
            <mxPoint x="100" y="209.5" as="sourcePoint" />
            <mxPoint x="260" y="209.5" as="targetPoint" />
          </mxGeometry>
        </mxCell>
        <mxCell id="ZlwNezZ9-106J7RFvOST-83" value="" style="endArrow=none;html=1;rounded=0;entryX=0.25;entryY=0;entryDx=0;entryDy=0;" edge="1" parent="1" target="ZlwNezZ9-106J7RFvOST-39">
          <mxGeometry relative="1" as="geometry">
            <mxPoint x="90" y="170" as="sourcePoint" />
            <mxPoint x="250" y="170" as="targetPoint" />
          </mxGeometry>
        </mxCell>
        <mxCell id="ZlwNezZ9-106J7RFvOST-84" value="end_station_id" style="ellipse;whiteSpace=wrap;html=1;align=center;" vertex="1" parent="1">
          <mxGeometry y="350" width="100" height="40" as="geometry" />
        </mxCell>
        <mxCell id="ZlwNezZ9-106J7RFvOST-85" value="booking_date" style="ellipse;whiteSpace=wrap;html=1;align=center;" vertex="1" parent="1">
          <mxGeometry y="410" width="100" height="40" as="geometry" />
        </mxCell>
        <mxCell id="ZlwNezZ9-106J7RFvOST-86" value="" style="endArrow=none;html=1;rounded=0;entryX=0.5;entryY=1;entryDx=0;entryDy=0;" edge="1" parent="1" target="ZlwNezZ9-106J7RFvOST-39">
          <mxGeometry relative="1" as="geometry">
            <mxPoint x="100" y="429.5" as="sourcePoint" />
            <mxPoint x="260" y="429.5" as="targetPoint" />
          </mxGeometry>
        </mxCell>
        <mxCell id="ZlwNezZ9-106J7RFvOST-87" value="has" style="shape=rhombus;perimeter=rhombusPerimeter;whiteSpace=wrap;html=1;align=center;" vertex="1" parent="1">
          <mxGeometry x="230" y="310" width="120" height="60" as="geometry" />
        </mxCell>
        <mxCell id="ZlwNezZ9-106J7RFvOST-89" value="" style="endArrow=none;html=1;rounded=0;entryX=0.5;entryY=0;entryDx=0;entryDy=0;" edge="1" parent="1" target="ZlwNezZ9-106J7RFvOST-87">
          <mxGeometry relative="1" as="geometry">
            <mxPoint x="230" y="279" as="sourcePoint" />
            <mxPoint x="390" y="279" as="targetPoint" />
          </mxGeometry>
        </mxCell>
        <mxCell id="ZlwNezZ9-106J7RFvOST-90" value="1" style="resizable=0;html=1;whiteSpace=wrap;align=right;verticalAlign=bottom;" connectable="0" vertex="1" parent="ZlwNezZ9-106J7RFvOST-89">
          <mxGeometry x="1" relative="1" as="geometry" />
        </mxCell>
        <mxCell id="ZlwNezZ9-106J7RFvOST-91" value="" style="endArrow=none;html=1;rounded=0;entryX=0;entryY=0.25;entryDx=0;entryDy=0;exitX=0.5;exitY=1;exitDx=0;exitDy=0;" edge="1" parent="1" source="ZlwNezZ9-106J7RFvOST-87" target="ZlwNezZ9-106J7RFvOST-63">
          <mxGeometry relative="1" as="geometry">
            <mxPoint x="300" y="370" as="sourcePoint" />
            <mxPoint x="440" y="389" as="targetPoint" />
          </mxGeometry>
        </mxCell>
        <mxCell id="ZlwNezZ9-106J7RFvOST-92" value="N" style="resizable=0;html=1;whiteSpace=wrap;align=right;verticalAlign=bottom;" connectable="0" vertex="1" parent="ZlwNezZ9-106J7RFvOST-91">
          <mxGeometry x="1" relative="1" as="geometry" />
        </mxCell>
        <mxCell id="ZlwNezZ9-106J7RFvOST-93" value="User" style="rounded=1;arcSize=10;whiteSpace=wrap;html=1;align=center;" vertex="1" parent="1">
          <mxGeometry x="160" y="450" width="100" height="40" as="geometry" />
        </mxCell>
        <mxCell id="ZlwNezZ9-106J7RFvOST-94" value="has" style="shape=rhombus;perimeter=rhombusPerimeter;whiteSpace=wrap;html=1;align=center;" vertex="1" parent="1">
          <mxGeometry x="140" y="350" width="120" height="60" as="geometry" />
        </mxCell>
        <mxCell id="ZlwNezZ9-106J7RFvOST-96" value="" style="endArrow=none;html=1;rounded=0;exitX=0.61;exitY=1.075;exitDx=0;exitDy=0;exitPerimeter=0;entryX=0.5;entryY=0;entryDx=0;entryDy=0;" edge="1" parent="1" source="ZlwNezZ9-106J7RFvOST-39" target="ZlwNezZ9-106J7RFvOST-94">
          <mxGeometry relative="1" as="geometry">
            <mxPoint x="180" y="309" as="sourcePoint" />
            <mxPoint x="200" y="340" as="targetPoint" />
          </mxGeometry>
        </mxCell>
        <mxCell id="ZlwNezZ9-106J7RFvOST-97" value="N" style="resizable=0;html=1;whiteSpace=wrap;align=right;verticalAlign=bottom;" connectable="0" vertex="1" parent="ZlwNezZ9-106J7RFvOST-96">
          <mxGeometry x="1" relative="1" as="geometry">
            <mxPoint x="-10" as="offset" />
          </mxGeometry>
        </mxCell>
        <mxCell id="ZlwNezZ9-106J7RFvOST-99" value="" style="endArrow=none;html=1;rounded=0;entryX=0.68;entryY=-0.075;entryDx=0;entryDy=0;entryPerimeter=0;exitX=0.5;exitY=1;exitDx=0;exitDy=0;" edge="1" parent="1" source="ZlwNezZ9-106J7RFvOST-94" target="ZlwNezZ9-106J7RFvOST-93">
          <mxGeometry relative="1" as="geometry">
            <mxPoint x="180" y="410" as="sourcePoint" />
            <mxPoint x="340" y="410" as="targetPoint" />
          </mxGeometry>
        </mxCell>
        <mxCell id="ZlwNezZ9-106J7RFvOST-100" value="1" style="resizable=0;html=1;whiteSpace=wrap;align=right;verticalAlign=bottom;" connectable="0" vertex="1" parent="ZlwNezZ9-106J7RFvOST-99">
          <mxGeometry x="1" relative="1" as="geometry">
            <mxPoint x="2" y="3" as="offset" />
          </mxGeometry>
        </mxCell>
        <mxCell id="ZlwNezZ9-106J7RFvOST-102" value="name" style="ellipse;whiteSpace=wrap;html=1;align=center;" vertex="1" parent="1">
          <mxGeometry x="150" y="545" width="100" height="40" as="geometry" />
        </mxCell>
        <mxCell id="ZlwNezZ9-106J7RFvOST-103" value="password" style="ellipse;whiteSpace=wrap;html=1;align=center;" vertex="1" parent="1">
          <mxGeometry x="260" y="545" width="100" height="40" as="geometry" />
        </mxCell>
        <mxCell id="ZlwNezZ9-106J7RFvOST-104" value="id" style="ellipse;whiteSpace=wrap;html=1;align=center;fontStyle=4;" vertex="1" parent="1">
          <mxGeometry x="30" y="545" width="100" height="40" as="geometry" />
        </mxCell>
        <mxCell id="ZlwNezZ9-106J7RFvOST-105" value="" style="endArrow=none;html=1;rounded=0;" edge="1" parent="1" target="ZlwNezZ9-106J7RFvOST-93">
          <mxGeometry relative="1" as="geometry">
            <mxPoint x="60" y="544" as="sourcePoint" />
            <mxPoint x="220" y="544" as="targetPoint" />
          </mxGeometry>
        </mxCell>
        <mxCell id="ZlwNezZ9-106J7RFvOST-107" value="" style="endArrow=none;html=1;rounded=0;entryX=0.43;entryY=1.075;entryDx=0;entryDy=0;entryPerimeter=0;" edge="1" parent="1" target="ZlwNezZ9-106J7RFvOST-93">
          <mxGeometry relative="1" as="geometry">
            <mxPoint x="200" y="544" as="sourcePoint" />
            <mxPoint x="360" y="544" as="targetPoint" />
          </mxGeometry>
        </mxCell>
        <mxCell id="ZlwNezZ9-106J7RFvOST-108" value="" style="endArrow=none;html=1;rounded=0;entryX=1;entryY=1;entryDx=0;entryDy=0;" edge="1" parent="1">
          <mxGeometry relative="1" as="geometry">
            <mxPoint x="320" y="544" as="sourcePoint" />
            <mxPoint x="260" y="494" as="targetPoint" />
          </mxGeometry>
        </mxCell>
      </root>
    </mxGraphModel>
  </diagram>
</mxfile>
